<svg width="36" height="46" viewBox="0 0 36 46" fill="none" xmlns="http://www.w3.org/2000/svg">
<path d="M5.00002 45.6667C3.80835 45.6667 2.78858 45.2427 1.94069 44.3948C1.09135 43.5455 0.666687 42.525 0.666687 41.3333V19.6667C0.666687 18.475 1.09135 17.4545 1.94069 16.6052C2.78858 15.7573 3.80835 15.3333 5.00002 15.3333H7.16669V11C7.16669 8.00278 8.2233 5.44755 10.3365 3.33433C12.4483 1.22255 15.0028 0.166664 18 0.166664C20.9972 0.166664 23.5525 1.22255 25.6657 3.33433C27.7775 5.44755 28.8334 8.00278 28.8334 11V15.3333H31C32.1917 15.3333 33.2122 15.7573 34.0615 16.6052C34.9094 17.4545 35.3334 18.475 35.3334 19.6667V41.3333C35.3334 42.525 34.9094 43.5455 34.0615 44.3948C33.2122 45.2427 32.1917 45.6667 31 45.6667H5.00002ZM18 34.8333C19.1917 34.8333 20.2122 34.4094 21.0615 33.5615C21.9094 32.7122 22.3334 31.6917 22.3334 30.5C22.3334 29.3083 21.9094 28.2878 21.0615 27.4385C20.2122 26.5906 19.1917 26.1667 18 26.1667C16.8084 26.1667 15.7886 26.5906 14.9407 27.4385C14.0914 28.2878 13.6667 29.3083 13.6667 30.5C13.6667 31.6917 14.0914 32.7122 14.9407 33.5615C15.7886 34.4094 16.8084 34.8333 18 34.8333ZM11.5 15.3333H24.5V11C24.5 9.19444 23.8681 7.65972 22.6042 6.39583C21.3403 5.13194 19.8056 4.5 18 4.5C16.1945 4.5 14.6597 5.13194 13.3959 6.39583C12.132 7.65972 11.5 9.19444 11.5 11V15.3333Z" fill="#699BF7"/>
</svg>
