<svg width="62" height="40" viewBox="0 0 62 40" fill="none" xmlns="http://www.w3.org/2000/svg">
<path fill-rule="evenodd" clip-rule="evenodd" d="M0 3.53125C0 2.76046 0.306193 2.02125 0.851221 1.47622C1.39625 0.931193 2.13546 0.625 2.90625 0.625H59.0938C59.8645 0.625 60.6037 0.931193 61.1488 1.47622C61.6938 2.02125 62 2.76046 62 3.53125C62 4.30204 61.6938 5.04125 61.1488 5.58628C60.6037 6.13131 59.8645 6.4375 59.0938 6.4375H2.90625C2.13546 6.4375 1.39625 6.13131 0.851221 5.58628C0.306193 5.04125 0 4.30204 0 3.53125ZM0 20C0 19.2292 0.306193 18.49 0.851221 17.945C1.39625 17.3999 2.13546 17.0938 2.90625 17.0938H59.0938C59.8645 17.0938 60.6037 17.3999 61.1488 17.945C61.6938 18.49 62 19.2292 62 20C62 20.7708 61.6938 21.51 61.1488 22.055C60.6037 22.6001 59.8645 22.9062 59.0938 22.9062H2.90625C2.13546 22.9062 1.39625 22.6001 0.851221 22.055C0.306193 21.51 0 20.7708 0 20ZM2.90625 33.5625C2.13546 33.5625 1.39625 33.8687 0.851221 34.4137C0.306193 34.9588 0 35.698 0 36.4688C0 37.2395 0.306193 37.9787 0.851221 38.5238C1.39625 39.0688 2.13546 39.375 2.90625 39.375H59.0938C59.8645 39.375 60.6037 39.0688 61.1488 38.5238C61.6938 37.9787 62 37.2395 62 36.4688C62 35.698 61.6938 34.9588 61.1488 34.4137C60.6037 33.8687 59.8645 33.5625 59.0938 33.5625H2.90625Z" fill="#699BF7"/>
</svg>
